
Complete name                    : The Last Station.mkv
Format                           : Matroska
File size                        : 1.08 GiB
Duration                         : 1h 48mn
Overall bit rate                 : 1 427 Kbps
Writing application              : HandBrake svn3494
Writing library                  : libmkv 0.6.4.1

Video

Format                           : AVC
Duration                         : 1h 48mn
Bit rate                         : 950 Kbps
Width                            : 718 pixels
Height                           : 436 pixels
Display aspect ratio             : 2.35:1
Stream size                      : 735 MiB (67%)
Writing library                  : x264 core 104


Audio

Format                           : AC-3
Duration                         : 1h 48mn
Bit rate                         : 448 Kbps
Channel(s)                       : 6 channels
Channel positions                : Front: L C R, Side: L R, LFE
Sampling rate                    : 48.0 KHz
Bit depth                        : 16 bits
Stream size                      : 346 MiB (31%)
Language                         : English

Text #1
Language                         : English

Text #2
Language                         : Italian

Text #3
Language                         : Danish

Text #4
Language                         : Finnish

Text #5
Language                         : Icelandic

Text #6
Language                         : Norwegian

Text #7
Language                         : Swedish

Menu
00:00:00.000                     : Chapter  1
00:04:38.000                     : Chapter  2


